<svg xmlns="http://www.w3.org/2000/svg" width="0" height="0">

	<defs>
		<filter id="galcon-noise">
			<feTurbulence baseFrequency="0.02 0.05" result="noise" numOctaves="2">
				<!-- <animate attributeName="baseFrequency" from="0.02 0.05" to="0.02 0.01" dur="50s" repeatCount="1" /> -->
			</feTurbulence>
			<feDisplacementMap in="SourceGraphic" in2="noise" scale="20" xChannelSelector="R" yChannelSelector="R"/>
		</filter>
	</defs>

	<svg id="galcon-logo" viewBox="0 0 482 133" cache="keep">
		<style type="text/css">
			.st0{fill:#fff;}
		</style>
		<path class="st0" d="M54.8,6.3h0.6c6.1,0,9.6,1.4,10.6,4.1c8.3,9.7,12.4,15.3,12.4,16.6c-7.6,7.5-12.5,14-14.7,19.5c-1.7,4.9-3.2,10.2-4.5,15.7 c-2.1,1-4,2.3-5.8,3.8c-1.4,0.2-2.8,0.3-4.1,0.3h-4.5c-4.6,0-11.7-2.8-21.1-8.3h-1c-0.7,0-1.2,1.4-1.3,4.2 c0,12.8,6.6,25.1,19.8,37.1l2.2,0.7h1.3c1.3,0,3-2.9,5.1-8.7l6.4-3.2v-0.3h-0.3c-9.2,3-15.2,4.5-17.9,4.5c-2.4-0.2-3.5-1.2-3.5-3.2 c3.3-13,6.2-19.5,8.6-19.5c0-0.3,0.6-0.8,1.9-1.6l2,4.5c10.3,0,19.8-1.1,40.4-7.2c1.4-1,2.7-2.1,3.8-3.2c0.3,0,0.9,0.7,2,2.2v0.3 c-1.6,4.8,0,5.9-6.5,9.6l-6.3,3.7c1,1.2,1.6,2.1,1.6,2.9c-3.2,14.8-8.1,27-14.7,36.8c-3.3,3.4-7.3,5.1-11.9,5.1 c-12.1,0-26.2-10.7-42.2-32C5.1,77.7,1,63.8,1,49.2V46c0-12.2,2.8-21.9,8.3-29.1c1.4-0.6,2.4-1,3.2-1h0.6c4,0,17,4.6,39,13.8 c3.2-8.1,4.8-13,4.8-14.7c-0.8-4.9-1.9-7.3-3.2-7.3c-0.4-0.2-0.8-0.3-1.3-0.3V6.7L54.8,6.3z"/>
		<path class="st0" d="M114.5,35c6.2,0,17.2,5.1,33,15.2c1,0.4,1.8,0.5,2.2,0.5c4,0,5.9-1,5.9-3.1h0.5l0.2,1.4v0.3c-0.6,6-1.7,8.9-3.1,8.9 c-4.6,3.6-7.9,5.4-9.8,5.4H141v0.3c3,7,4.5,10.6,4.5,10.9c4.5-1.4,6.7-3.5,6.7-6.4v-0.3c0-0.9-0.4-2.6-1.2-5h0.3 c7.2,7.1,10.8,11.7,10.8,13.7c0,2.7-2.2,10.4-6.5,23h-0.7v2.5c0,3-6.1,12.2-18.2,27.8c-0.5,0.2-0.9,0.2-1,0.2 c-0.8,0-3.4-0.4-7.9-1.1V129c3-4.2,4.5-6.9,4.5-8.2v-2.3c-0.6-3.5-1.8-8.1-3.8-13.7l-20.8,5.6l-0.3,1.4c0,0.6,1.4,2.9,4.3,6.7 c-2.6,1-5.4,1.7-8.4,2.3c-4.2-1.3-11.2-5.9-20.8-13.8c-0.9-1.2-1.4-2.2-1.4-3.1v-0.5c0-3.2,5.6-17,16.7-41.5 c1.9-4.8,3.5-8.3,4.8-10.4c2.1,1,4.7,1.9,7.7,2.8v-0.2c-1.5-4.4-2.2-7.6-2.2-9.8v-1.4c0-1,1.6-1.8,4.8-2.5 C113.6,36.8,114.1,35,114.5,35z M117.8,75.9l-8.1,21.9h0.2c11.5-9.2,17.4-13.9,17.7-14.3h-0.3c-3.1,1.9-4.8,2.8-5.2,2.8 C119.9,80.4,118.5,77,117.8,75.9z"/>
		<path class="st0" d="M227.5,10.3l-0.2,1c-10.7,11.9-17.9,26.6-21.4,44.3c-0.8,2.4-2.2,7.8-4.2,16.2c-0.3,1.7-0.8,5.1-1.3,10.2 c-0.3-0.1-1.8,1.3-4.4,4l-0.1,0.3c6.4-4.1,12.2-8.8,17.3-14.3c6.9-6,13.7-8.4,20.1-7.1l0.9,0.2c4.4,0.9,5.1,12,2.1,33.4 c0.2,0,0.3,0.3,0.2,0.7c-2.6,3.3-4.1,5-4.5,5c-1.9-4.7-3-7.1-3.4-7.2l-0.7-0.1c-3.2-0.6-11.2,0.3-24.1,2.9 c-12.5,9.9-19.1,14.8-19.7,14.8c-1.4-0.9-2.6-3.5-3.6-7.6c-3.9,1.2-6.1,3.3-6.7,6.3l-0.3-0.1c-0.4-0.1-1.5-1.5-3.3-4.4l0.5-2.3 c1.4-7,3.9-12.2,7.6-15.5c-1.5-14.6-2.2-28.3-2.2-41.1c-3.2,3-5.3,5.7-6.1,8.2c-1.1,5.3-0.7,8.2,1.2,8.6l-0.1,0.6 c-0.2,0-0.6,0-1,0.2c-6.8-2.8-9.9-5.4-9.4-7.8c-3.2-10.3-5-17.3-5.5-21.3l0.2-1c0.3-0.5,3.7-2.2,10.4-5.2 c8.3-5.8,15.2-13.3,20.6-22.3c0.9-0.3,3-0.7,6.3-1.2c2,1.1,4.2,2.4,6.7,4.1C205.6,8.7,215,7.9,227.5,10.3z"/>
		<path class="st0" d="M286.9,18.2h4.1c9.9,7.5,16.4,12.8,19.5,15.8v0.6c-8.9,9.9-13.3,21.6-13.3,35c0.2,0.4,0.3,0.9,0.3,1.5 c-7.3,5.6-11.8,8.4-13.7,8.4h-4.4l-4.1,0.3c-3-11.3-6.6-17-10.6-17c-2.4,0-4,4.1-4.8,12.4c0,8.8,4.1,16.4,12.3,22.9 c1.6,1.1,3,1.6,4.1,1.6c2.3,0,3.4-2.6,3.4-7.8v-2.2c0-0.5-0.6-2.5-1.7-6.2c3.9-2.3,8.3-3.4,13-3.4c3.5,0,11,3.1,22.6,9.3V90 c-1.3,2.7-4.1,4-8.2,4c-1.3,0-3.1,3.8-5.5,11.4c-4.7,9.5-11.1,14.3-19.1,14.3c-10.2,0-20.2-6.4-30.1-19.2 C242.5,87,238.3,73,238.3,58.4v-1.8c0-17,6-28.8,18.1-35.3c1.9-0.4,3.6-0.7,5.1-0.7c6.4,0,13.2,6.1,20.5,18.3v6.2h0.3 c1.8-8.5,2.9-14.3,3.4-17.4c-1.7-5.2-3.5-7.8-5.5-7.8h-1v-0.3C279.4,18.9,281.9,18.3,286.9,18.2z"/>
		<path class="st0" d="M366.4,21.5c10.1,1.6,14.9,12.4,14.4,32.5c-0.2,2.4-0.5,4.7-0.8,7l0,0.2c-3.1,19.5-10.2,35.4-21.4,47.7 c-4.6,4.3-9,6-13.2,5.4c-8.7-1.4-15.9-10.8-21.5-28.2c-2-8.9-2.5-16.7-1.4-23.3c0.3,0,1.6-1.4,3.9-4.1l-0.3,0 c-9.7,7.1-14.7,11.4-14.9,12.8c-0.7,1.9-1.2,3.8-1.5,5.7c0.3,0,0.6,0.6,1.1,1.7l0,0.2l-0.3,0c-1.5-0.2-3.8-2.4-7-6.4 c-0.8-12.8-1.1-20.1-0.8-21.9c0.9-0.6,3.7-1.4,8.4-2.3c6.2-1.6,13.4-6.8,21.8-15.4l5.3,0.3c0.3,0.3,0.6,0.4,0.8,0.4 C349.3,24.4,358.5,20.2,366.4,21.5z M339.6,85.4c-0.9,5.8-0.1,10.3,2.4,13.5l0.8,0.1c2.4,0.4,4.7-3.7,6.8-12.4 c1-6.1,0.1-10.8-2.6-13.9l-0.2,0c-2.4-0.4-4.8,3.5-7,11.8L339.6,85.4z"/>
		<path class="st0" d="M414.5,9.7c1.8,0,6.6,16.6,14.4,49.9c1.1,5.2,2.1,8.4,2.9,9.6c4.2-24.7,7.6-39.8,10.3-45.4c4.1-6.4,7.4-9.9,10-10.4 c4.7,1,7.1,2.6,7.1,5c4.1,10,4.5,4.9,10.6,11.9c1.5,1.7,4.8,4.4,10,8.1l0.6,1.6c-5.5,18.3-8.9,27.9-10.3,28.8 c-3.4,2.1-6.2,3.4-8.6,3.8l-0.3-0.7c1.4-0.7,2.1-3.4,2.1-8.1v-2.3c-0.5-2.5,0.4,3.4-6.7-9.2h-0.3v0.3c2,5,2.9,7.7,2.9,8.1 C457,72.3,456,84.5,456,97.3c0,5.2,1.2,8.4,3.6,9.6c2.3,2.3,3.7,3.4,4.1,3.4v1.1l-30.9,11.9h-0.3c-4.3-8.4-6.4-16.9-6.4-25.4v-0.7 c1.7-7.7,2.6-12.1,2.6-13.1c-6.1-16.8-10.8-28.4-14.1-35c-0.4,0-1.8,6.5-4.1,19.6c-1.2,8.1-2.4,15.4-3.8,22l4.1,6.1 c-1.2,5-7.3,15.6-18.5,31.9c-1.1,1-1.9,1.6-2.4,1.6c-1.3,0-5-9.5-10.9-28.5c-0.4-2.3-0.6-3.9-0.6-5c0-15.1,3.9-38.4,11.8-69.9 c3-9.7,6.1-14.6,9.4-14.6C407.4,11,412.4,10.1,414.5,9.7z"/>
	</svg>

	<svg id="icon-tutorial" viewBox="0 0 23 23">
		<path fill="#69d" d="M21.4,6.3c0.3,0.4,0.4,1,0.2,1.6L18.3,19c-0.3,1-1.4,1.9-2.4,1.9H4.5c-1.3,0-2.6-1-3-2.3
			c-0.2-0.6-0.2-1.1,0-1.6c0-0.2,0.1-0.5,0.1-0.8c0-0.2-0.1-0.4-0.1-0.5c0-0.3,0.3-0.5,0.5-0.8c0.4-0.6,0.8-1.6,0.9-2.2
			c0.1-0.2-0.1-0.5,0-0.7c0.1-0.2,0.3-0.4,0.4-0.6C3.6,10.8,4,9.7,4.1,9.1c0-0.3-0.1-0.5,0-0.7C4.1,8.1,4.4,8,4.6,7.7
			c0.3-0.4,0.8-1.6,0.9-2.2c0-0.2-0.1-0.4-0.1-0.6c0-0.2,0.3-0.5,0.5-0.8c0.5-0.8,0.6-2.4,2.2-2l0,0C8.3,2.1,8.5,2,8.7,2h9.3
			c0.6,0,1.1,0.3,1.4,0.7c0.3,0.4,0.4,1,0.2,1.6l-3.4,11.1c-0.6,1.9-0.9,2.3-2.5,2.3H3.2c-0.2,0-0.4,0-0.5,0.2
			c-0.1,0.1-0.1,0.3,0,0.5c0.2,0.7,1.1,0.9,1.8,0.9h11.3c0.5,0,1-0.3,1.1-0.7l3.7-12.1c0.1-0.2,0.1-0.5,0.1-0.7
			C21,5.9,21.2,6.1,21.4,6.3z M8.3,6.3c-0.1,0.2,0,0.4,0.3,0.4h7.5c0.2,0,0.4-0.2,0.5-0.4l0.3-0.8c0.1-0.2,0-0.4-0.3-0.4H9.1
			c-0.2,0-0.4,0.2-0.5,0.4L8.3,6.3z M7.3,9.5c-0.1,0.2,0,0.4,0.3,0.4h7.5c0.2,0,0.4-0.2,0.5-0.4l0.3-0.8c0.1-0.2,0-0.4-0.3-0.4H8.1
			c-0.2,0-0.4,0.2-0.5,0.4L7.3,9.5z"/>
	</svg>

	<svg id="icon-classic" viewBox="0 0 23 23">
		<path fill="#69d" d="M10.1,12.2v-1.4c0-0.2-0.2-0.4-0.4-0.4H7.6V8.3c0-0.2-0.2-0.4-0.4-0.4H5.9c-0.2,0-0.4,0.2-0.4,0.4v2.1H3.4
			c-0.2,0-0.4,0.2-0.4,0.4v1.4c0,0.2,0.2,0.4,0.4,0.4h2.1v2.1c0,0.2,0.2,0.4,0.4,0.4h1.4c0.2,0,0.4-0.2,0.4-0.4v-2.1h2.1
			C9.9,12.5,10.1,12.4,10.1,12.2z M16.4,12.9c0-0.8-0.6-1.4-1.4-1.4c-0.8,0-1.4,0.6-1.4,1.4c0,0.8,0.6,1.4,1.4,1.4
			C15.8,14.3,16.4,13.6,16.4,12.9z M19.2,10.1c0-0.8-0.6-1.4-1.4-1.4s-1.4,0.6-1.4,1.4c0,0.8,0.6,1.4,1.4,1.4
			C18.6,11.5,19.2,10.8,19.2,10.1z M22,11.5c0,3.1-2.5,5.6-5.6,5.6c-1.4,0-2.7-0.5-3.7-1.4h-2.4c-1,0.9-2.3,1.4-3.7,1.4
			c-3.1,0-5.6-2.5-5.6-5.6s2.5-5.6,5.6-5.6h9.8C19.5,5.8,22,8.4,22,11.5z"/>
	</svg>

	<svg id="icon-stealth" viewBox="0 0 23 23">
		<style type="text/css">
			.st0{fill:#69d;}
		</style>
		<path class="st0" d="M19.6,2.8c-0.3-0.3-0.9-0.3-1.3,0l-3.8,3.8c-1-0.3-2-0.5-3.1-0.5c-4.2,0-7.8,2.4-9.5,6C2.7,13.6,3.8,15,5.2,16l-3,3
			c-0.3,0.3-0.3,0.9,0,1.3c0.2,0.2,0.4,0.3,0.6,0.3c0.2,0,0.5-0.1,0.6-0.3L19.6,4.1C19.9,3.7,19.9,3.2,19.6,2.8z M9.7,8.5
			c0.8,0,1.5,0.5,1.7,1.2L9.1,12c-0.7-0.2-1.2-0.9-1.2-1.7C7.9,9.3,8.7,8.5,9.7,8.5z M4,12.1C4.7,11,5.7,10,6.8,9.3
			c0.1,0,0.1-0.1,0.2-0.1c-0.2,0.5-0.3,1.1-0.3,1.6c0,1,0.3,2,0.9,2.7l-1.1,1.1C5.5,14,4.6,13.1,4,12.1z"/>
		<path class="st0" d="M16.3,10.8c0-0.5-0.1-1-0.2-1.5l-6,6c0.5,0.1,0.9,0.2,1.5,0.2C14.1,15.6,16.3,13.4,16.3,10.8L16.3,10.8z"/>
		<path class="st0" d="M17.4,8l-1.3,1.3c0,0,0,0,0.1,0c1.1,0.7,2.1,1.7,2.8,2.8c-0.7,1.1-1.7,2.1-2.8,2.8c-1.4,0.9-3,1.4-4.7,1.4
			c-0.7,0-1.4-0.1-2.1-0.3l-1.4,1.4c1.1,0.4,2.3,0.6,3.6,0.6c4.2,0,7.8-2.4,9.5-6C20.2,10.4,19,9,17.4,8z"/>
	</svg>

	<svg id="icon-3-way" viewBox="0 0 23 23">
		<style type="text/css">
			.st0{fill:#69d;}
			.st1{fill:none;stroke:#69d;stroke-miterlimit:10;}
		</style>
		<circle class="st0" cx="13" cy="18" r="3"/>
		<circle class="st0" cx="5" cy="8" r="3"/>
		<circle class="st0" cx="18" cy="5" r="3"/>
		<line class="st1" x1="13" y1="18" x2="18" y2="5"/>
		<line class="st1" x1="13" y1="18" x2="5" y2="8"/>
		<line class="st1" x1="5" y1="8" x2="18" y2="5"/>
	</svg>

	<svg id="icon-billiards" viewBox="0 0 23 23">
		<style type="text/css">
			.st0{fill:#69d;}
		</style>
		<circle class="st0" cx="4.5" cy="4.5" r="2.5"/>
		<circle class="st0" cx="18.5" cy="15.5" r="2.5"/>
		<circle class="st0" cx="10.7" cy="12.3" r="4.3"/>
		<circle class="st0" cx="4.5" cy="18.5" r="2.5"/>
		<circle class="st0" cx="13.5" cy="4.5" r="2.5"/>
	</svg>


	<svg id="icon-menu" viewBox="0 0 23 23">
		<path fill="#69d" d="M2,10v3c0,0.6,0.5,1,1,1h17c0.5,0,1-0.4,1-1v-3c0-0.6-0.5-1-1-1H3C2.5,9,2,9.5,2,10z"/>
		<path fill="#69d" d="M2,3v3c0,0.6,0.5,1,1,1h17c0.5,0,1-0.4,1-1V3c0-0.5-0.5-1-1-1H3C2.5,2,2,2.5,2,3z"/>
		<path fill="#69d" d="M2,17v3c0,0.5,0.5,1,1,1h17c0.5,0,1-0.5,1-1v-3c0-0.5-0.5-1-1-1H3C2.5,16,2,16.5,2,17z"/>
	</svg>

	<svg id="icon-play" viewBox="0 0 23 23">
		<path fill="#69d" d="M4,3.7v15.5c0,0.6,0.8,1.1,1.2,0.6l13.3-7.7c0.4-0.4,0.4-1.1,0-1.2L5.3,3.1C5,2.8,4,3.3,4,3.7z"/>
	</svg>

	<svg id="icon-pause" viewBox="0 0 23 23">
		<path fill="#69d" d="M15,20h3c0.5,0,1-0.5,1-1V4c0-0.5-0.5-1-1-1h-3c-0.6,0-1,0.5-1,1v15C14,19.5,14.5,20,15,20z"/>
		<path fill="#69d" d="M5,20h3c0.5,0,1-0.5,1-1V4c0-0.5-0.5-1-1-1H5C4.4,3,4,3.5,4,4v15C4,19.5,4.4,20,5,20z"/>
	</svg>


	<svg id="icon-sound-fx" viewBox="0 0 23 23">
		<path fill="#69d" d="M18.3,18.7c-0.3,0-0.6-0.1-0.8-0.3c-0.4-0.4-0.4-1.1,0-1.5c3-3,3-7.8,0-10.8c-0.4-0.4-0.4-1.1,0-1.5
			c0.4-0.4,1.1-0.4,1.5,0c1.8,1.8,2.9,4.3,2.9,6.9c0,2.6-1,5.1-2.9,6.9C18.9,18.6,18.6,18.7,18.3,18.7L18.3,18.7L18.3,18.7z
			 M14.4,16.6c-0.3,0-0.6-0.1-0.8-0.3c-0.4-0.4-0.4-1.1,0-1.5c1.8-1.8,1.8-4.8,0-6.7c-0.4-0.4-0.4-1.1,0-1.5c0.4-0.4,1.1-0.4,1.5,0
			c2.7,2.7,2.7,7.1,0,9.7C15,16.5,14.7,16.6,14.4,16.6z"/>
		<path fill="#69d" d="M10.4,21.6c-0.2,0-0.4-0.1-0.5-0.2l-5.6-5.6H1.7c-0.4,0-0.7-0.3-0.7-0.7V7.8c0-0.4,0.3-0.7,0.7-0.7h2.6
			l5.6-5.6c0.2-0.2,0.5-0.3,0.8-0.2s0.4,0.4,0.4,0.7v18.9c0,0.3-0.2,0.6-0.4,0.7C10.6,21.6,10.5,21.6,10.4,21.6z"/>
	</svg>

	<svg id="icon-music" viewBox="0 0 23 23">
		<path fill="#69d" d="M21,2.4v13.9c0,1.7-2.6,2.4-4,2.4s-4-0.6-4-2.4c0-1.7,2.6-2.4,4-2.4c0.8,0,1.6,0.1,2.4,0.5V7.7l-9.5,2.9v8.8
			c0,1.7-2.6,2.4-4,2.4s-4-0.6-4-2.4S4.6,17,6,17c0.8,0,1.6,0.1,2.4,0.5v-12c0-0.5,0.3-1,0.8-1.1l10.3-3.2c0.1,0,0.2,0,0.3,0
			C20.5,1.2,21,1.7,21,2.4z"/>
	</svg>

	<svg id="icon-fps" viewBox="0 0 23 23">
		<rect fill="#69d" x="1" y="19" width="20" height="2"/>
		<rect fill="#69d" x="2" y="14" width="2" height="4"/>
		<rect fill="#69d" x="6" y="9" width="2" height="9"/>
		<rect fill="#69d" x="10" y="12" width="2" height="6"/>
		<rect fill="#69d" x="18" y="4" width="2" height="14"/>
		<rect fill="#69d" x="14" y="7" width="2" height="11"/>
	</svg>

</svg>