<svg xmlns="http://www.w3.org/2000/svg" width="0" height="0">

	<defs>
		<filter id="galcon-noise">
			<feTurbulence baseFrequency="0.02 0.05" result="noise" numOctaves="2">
				<!-- <animate attributeName="baseFrequency" from="0.02 0.05" to="0.02 0.01" dur="50s" repeatCount="1" /> -->
			</feTurbulence>
			<feDisplacementMap in="SourceGraphic" in2="noise" scale="20" xChannelSelector="R" yChannelSelector="R"/>
		</filter>
	</defs>

	<svg id="icon-tutorial" viewBox="0 0 23 23">
		<path fill="#69d" d="M21.4,6.3c0.3,0.4,0.4,1,0.2,1.6L18.3,19c-0.3,1-1.4,1.9-2.4,1.9H4.5c-1.3,0-2.6-1-3-2.3
			c-0.2-0.6-0.2-1.1,0-1.6c0-0.2,0.1-0.5,0.1-0.8c0-0.2-0.1-0.4-0.1-0.5c0-0.3,0.3-0.5,0.5-0.8c0.4-0.6,0.8-1.6,0.9-2.2
			c0.1-0.2-0.1-0.5,0-0.7c0.1-0.2,0.3-0.4,0.4-0.6C3.6,10.8,4,9.7,4.1,9.1c0-0.3-0.1-0.5,0-0.7C4.1,8.1,4.4,8,4.6,7.7
			c0.3-0.4,0.8-1.6,0.9-2.2c0-0.2-0.1-0.4-0.1-0.6c0-0.2,0.3-0.5,0.5-0.8c0.5-0.8,0.6-2.4,2.2-2l0,0C8.3,2.1,8.5,2,8.7,2h9.3
			c0.6,0,1.1,0.3,1.4,0.7c0.3,0.4,0.4,1,0.2,1.6l-3.4,11.1c-0.6,1.9-0.9,2.3-2.5,2.3H3.2c-0.2,0-0.4,0-0.5,0.2
			c-0.1,0.1-0.1,0.3,0,0.5c0.2,0.7,1.1,0.9,1.8,0.9h11.3c0.5,0,1-0.3,1.1-0.7l3.7-12.1c0.1-0.2,0.1-0.5,0.1-0.7
			C21,5.9,21.2,6.1,21.4,6.3z M8.3,6.3c-0.1,0.2,0,0.4,0.3,0.4h7.5c0.2,0,0.4-0.2,0.5-0.4l0.3-0.8c0.1-0.2,0-0.4-0.3-0.4H9.1
			c-0.2,0-0.4,0.2-0.5,0.4L8.3,6.3z M7.3,9.5c-0.1,0.2,0,0.4,0.3,0.4h7.5c0.2,0,0.4-0.2,0.5-0.4l0.3-0.8c0.1-0.2,0-0.4-0.3-0.4H8.1
			c-0.2,0-0.4,0.2-0.5,0.4L7.3,9.5z"/>
	</svg>

	<svg id="icon-classic" viewBox="0 0 23 23">
		<path fill="#69d" d="M10.1,12.2v-1.4c0-0.2-0.2-0.4-0.4-0.4H7.6V8.3c0-0.2-0.2-0.4-0.4-0.4H5.9c-0.2,0-0.4,0.2-0.4,0.4v2.1H3.4
			c-0.2,0-0.4,0.2-0.4,0.4v1.4c0,0.2,0.2,0.4,0.4,0.4h2.1v2.1c0,0.2,0.2,0.4,0.4,0.4h1.4c0.2,0,0.4-0.2,0.4-0.4v-2.1h2.1
			C9.9,12.5,10.1,12.4,10.1,12.2z M16.4,12.9c0-0.8-0.6-1.4-1.4-1.4c-0.8,0-1.4,0.6-1.4,1.4c0,0.8,0.6,1.4,1.4,1.4
			C15.8,14.3,16.4,13.6,16.4,12.9z M19.2,10.1c0-0.8-0.6-1.4-1.4-1.4s-1.4,0.6-1.4,1.4c0,0.8,0.6,1.4,1.4,1.4
			C18.6,11.5,19.2,10.8,19.2,10.1z M22,11.5c0,3.1-2.5,5.6-5.6,5.6c-1.4,0-2.7-0.5-3.7-1.4h-2.4c-1,0.9-2.3,1.4-3.7,1.4
			c-3.1,0-5.6-2.5-5.6-5.6s2.5-5.6,5.6-5.6h9.8C19.5,5.8,22,8.4,22,11.5z"/>
	</svg>

	<svg id="icon-stealth" viewBox="0 0 23 23">
		<style type="text/css">
			.st0{fill:#69d;}
		</style>
		<path class="st0" d="M19.6,2.8c-0.3-0.3-0.9-0.3-1.3,0l-3.8,3.8c-1-0.3-2-0.5-3.1-0.5c-4.2,0-7.8,2.4-9.5,6C2.7,13.6,3.8,15,5.2,16l-3,3
			c-0.3,0.3-0.3,0.9,0,1.3c0.2,0.2,0.4,0.3,0.6,0.3c0.2,0,0.5-0.1,0.6-0.3L19.6,4.1C19.9,3.7,19.9,3.2,19.6,2.8z M9.7,8.5
			c0.8,0,1.5,0.5,1.7,1.2L9.1,12c-0.7-0.2-1.2-0.9-1.2-1.7C7.9,9.3,8.7,8.5,9.7,8.5z M4,12.1C4.7,11,5.7,10,6.8,9.3
			c0.1,0,0.1-0.1,0.2-0.1c-0.2,0.5-0.3,1.1-0.3,1.6c0,1,0.3,2,0.9,2.7l-1.1,1.1C5.5,14,4.6,13.1,4,12.1z"/>
		<path class="st0" d="M16.3,10.8c0-0.5-0.1-1-0.2-1.5l-6,6c0.5,0.1,0.9,0.2,1.5,0.2C14.1,15.6,16.3,13.4,16.3,10.8L16.3,10.8z"/>
		<path class="st0" d="M17.4,8l-1.3,1.3c0,0,0,0,0.1,0c1.1,0.7,2.1,1.7,2.8,2.8c-0.7,1.1-1.7,2.1-2.8,2.8c-1.4,0.9-3,1.4-4.7,1.4
			c-0.7,0-1.4-0.1-2.1-0.3l-1.4,1.4c1.1,0.4,2.3,0.6,3.6,0.6c4.2,0,7.8-2.4,9.5-6C20.2,10.4,19,9,17.4,8z"/>
	</svg>

	<svg id="icon-3-way" viewBox="0 0 23 23">
		<style type="text/css">
			.st0{fill:#69d;}
			.st1{fill:none;stroke:#69d;stroke-miterlimit:10;}
		</style>
		<circle class="st0" cx="13" cy="18" r="3"/>
		<circle class="st0" cx="5" cy="8" r="3"/>
		<circle class="st0" cx="18" cy="5" r="3"/>
		<line class="st1" x1="13" y1="18" x2="18" y2="5"/>
		<line class="st1" x1="13" y1="18" x2="5" y2="8"/>
		<line class="st1" x1="5" y1="8" x2="18" y2="5"/>
	</svg>

	<svg id="icon-billiards" viewBox="0 0 23 23">
		<style type="text/css">
			.st0{fill:#69d;}
		</style>
		<circle class="st0" cx="4.5" cy="4.5" r="2.5"/>
		<circle class="st0" cx="18.5" cy="15.5" r="2.5"/>
		<circle class="st0" cx="10.7" cy="12.3" r="4.3"/>
		<circle class="st0" cx="4.5" cy="18.5" r="2.5"/>
		<circle class="st0" cx="13.5" cy="4.5" r="2.5"/>
	</svg>


	<svg id="icon-menu" viewBox="0 0 23 23">
		<path fill="#69d" d="M2,10v3c0,0.6,0.5,1,1,1h17c0.5,0,1-0.4,1-1v-3c0-0.6-0.5-1-1-1H3C2.5,9,2,9.5,2,10z"/>
		<path fill="#69d" d="M2,3v3c0,0.6,0.5,1,1,1h17c0.5,0,1-0.4,1-1V3c0-0.5-0.5-1-1-1H3C2.5,2,2,2.5,2,3z"/>
		<path fill="#69d" d="M2,17v3c0,0.5,0.5,1,1,1h17c0.5,0,1-0.5,1-1v-3c0-0.5-0.5-1-1-1H3C2.5,16,2,16.5,2,17z"/>
	</svg>

	<svg id="icon-play" viewBox="0 0 23 23">
		<path fill="#69d" d="M4,3.7v15.5c0,0.6,0.8,1.1,1.2,0.6l13.3-7.7c0.4-0.4,0.4-1.1,0-1.2L5.3,3.1C5,2.8,4,3.3,4,3.7z"/>
	</svg>

	<svg id="icon-pause" viewBox="0 0 23 23">
		<path fill="#69d" d="M15,20h3c0.5,0,1-0.5,1-1V4c0-0.5-0.5-1-1-1h-3c-0.6,0-1,0.5-1,1v15C14,19.5,14.5,20,15,20z"/>
		<path fill="#69d" d="M5,20h3c0.5,0,1-0.5,1-1V4c0-0.5-0.5-1-1-1H5C4.4,3,4,3.5,4,4v15C4,19.5,4.4,20,5,20z"/>
	</svg>


	<svg id="icon-sound-fx" viewBox="0 0 23 23">
		<path fill="#69d" d="M18.3,18.7c-0.3,0-0.6-0.1-0.8-0.3c-0.4-0.4-0.4-1.1,0-1.5c3-3,3-7.8,0-10.8c-0.4-0.4-0.4-1.1,0-1.5
			c0.4-0.4,1.1-0.4,1.5,0c1.8,1.8,2.9,4.3,2.9,6.9c0,2.6-1,5.1-2.9,6.9C18.9,18.6,18.6,18.7,18.3,18.7L18.3,18.7L18.3,18.7z
			 M14.4,16.6c-0.3,0-0.6-0.1-0.8-0.3c-0.4-0.4-0.4-1.1,0-1.5c1.8-1.8,1.8-4.8,0-6.7c-0.4-0.4-0.4-1.1,0-1.5c0.4-0.4,1.1-0.4,1.5,0
			c2.7,2.7,2.7,7.1,0,9.7C15,16.5,14.7,16.6,14.4,16.6z"/>
		<path fill="#69d" d="M10.4,21.6c-0.2,0-0.4-0.1-0.5-0.2l-5.6-5.6H1.7c-0.4,0-0.7-0.3-0.7-0.7V7.8c0-0.4,0.3-0.7,0.7-0.7h2.6
			l5.6-5.6c0.2-0.2,0.5-0.3,0.8-0.2s0.4,0.4,0.4,0.7v18.9c0,0.3-0.2,0.6-0.4,0.7C10.6,21.6,10.5,21.6,10.4,21.6z"/>
	</svg>

	<svg id="icon-music" viewBox="0 0 23 23">
		<path fill="#69d" d="M21,2.4v13.9c0,1.7-2.6,2.4-4,2.4s-4-0.6-4-2.4c0-1.7,2.6-2.4,4-2.4c0.8,0,1.6,0.1,2.4,0.5V7.7l-9.5,2.9v8.8
			c0,1.7-2.6,2.4-4,2.4s-4-0.6-4-2.4S4.6,17,6,17c0.8,0,1.6,0.1,2.4,0.5v-12c0-0.5,0.3-1,0.8-1.1l10.3-3.2c0.1,0,0.2,0,0.3,0
			C20.5,1.2,21,1.7,21,2.4z"/>
	</svg>

	<svg id="icon-fps" viewBox="0 0 23 23">
		<rect fill="#69d" x="1" y="19" width="20" height="2"/>
		<rect fill="#69d" x="2" y="14" width="2" height="4"/>
		<rect fill="#69d" x="6" y="9" width="2" height="9"/>
		<rect fill="#69d" x="10" y="12" width="2" height="6"/>
		<rect fill="#69d" x="18" y="4" width="2" height="14"/>
		<rect fill="#69d" x="14" y="7" width="2" height="11"/>
	</svg>

</svg>